<?xml version="1.0" encoding="UTF-8"?><svg id="Layer_1" xmlns="http://www.w3.org/2000/svg" viewBox="0 0 322.88 322.88"><defs><style>.cls-1{fill:#fff;}.cls-2{fill:#0870b8;}</style></defs><rect class="cls-2" x="38.94" y="38.94" width="245" height="245" rx="28.49" ry="28.49" transform="translate(389.76 161.44) rotate(135)"/><path class="cls-1" d="m73.76,131.1c21.04-.1,42.09-.19,63.13-.29l-5.3-12.8c-17.19,19.82-34.37,39.64-51.56,59.46-4.86,5.6-9.71,11.2-14.57,16.8-2.12,2.44-3.05,6.17-1.17,9.09s5.09,4.18,8.47,3.45c5.19-1.12,10.42-2.04,15.69-2.75l-1.99.27c17.2-2.28,34.65-2.28,51.86-.01l-1.99-.27c3.51.47,7,1.03,10.48,1.69,2.01.38,3.96.31,5.78-.76,1.56-.91,3.04-2.69,3.45-4.48.84-3.69-1.12-8.45-5.24-9.23-20.81-3.91-42.12-4.77-63.14-2.1-6.34.81-12.63,1.82-18.88,3.17l7.3,12.54c17.19-19.82,34.37-39.64,51.56-59.46,4.86-5.6,9.71-11.2,14.57-16.8,2.02-2.33,2.79-5.26,1.55-8.19-1.14-2.71-3.85-4.62-6.85-4.61-21.04.1-42.09.19-63.13.29-3.92.02-7.68,3.44-7.5,7.5s3.3,7.52,7.5,7.5h0Z"/><path class="cls-1" d="m157.57,118.59c2.67,22.34,7.47,44.37,14.81,65.66,2.01,5.84,4.21,11.62,6.58,17.32,1.04,2.51,2.47,4.48,5.24,5.24,2.4.66,5.63.07,7.3-1.93,12.03-14.42,20.4-31.75,24.24-50.14,1.15-5.5,1.91-11.1,2.33-16.7l-14.73,1.99c4.51,17.2,10.5,33.97,17.77,50.19,1.98,4.42,4.07,8.78,6.25,13.1,1.34,2.65,4.69,3.95,7.47,3.58,1.35-.18,2.47-.64,3.55-1.48,1.39-1.07,2.03-2.26,2.69-3.9,10.25-25.59,12-54.5,6.16-81.35-1.58-7.24-3.78-14.34-6.59-21.19-.78-1.89-1.62-3.41-3.45-4.48-1.61-.94-3.98-1.34-5.78-.76s-3.57,1.71-4.48,3.45-1.5,3.96-.76,5.78c4.19,10.18,6.97,20.88,8.45,31.78l-.27-1.99c1.59,12,1.58,24.17-.01,36.17l.27-1.99c-1.43,10.48-4.07,20.77-8,30.59l13.71-1.79c-3.2-6.31-6.17-12.73-8.93-19.24l.76,1.79c-5.78-13.72-10.56-27.85-14.34-42.26-.95-3.62-4.62-5.86-8.23-5.37-3.85.52-6.22,3.6-6.5,7.37-.17,2.26-.4,4.52-.7,6.77l.27-1.99c-1.33,9.77-3.92,19.32-7.73,28.42l.76-1.79c-1.99,4.72-4.3,9.31-6.94,13.7-1.27,2.11-2.62,4.18-4.04,6.2-.75,1.06-1.52,2.09-2.3,3.13-.56.74,1.01-1.28.42-.55-.21.26-.42.53-.63.8-.42.53-.85,1.05-1.29,1.57l12.54,3.31c-7.88-18.99-13.8-38.78-17.69-58.98-1.11-5.75-2.05-11.54-2.83-17.35l.27,1.99c-.21-1.55-.4-3.1-.59-4.66-.25-2.06-.67-3.78-2.2-5.3-1.3-1.3-3.44-2.28-5.3-2.2s-3.95.72-5.3,2.2c-1.25,1.36-2.43,3.38-2.2,5.3h0Z"/></svg>